HIERARCHY
ROOT Pelvis
{
	OFFSET 0.000000 0.941512 0.000000
	CHANNELS 6 Xposition Yposition Zposition Zrotation Yrotation Xrotation 
	JOINT Pelvis_L_Hip
	{
		OFFSET 0.000000 0.000000 0.000000
		CHANNELS 3 Zrotation Yrotation Xrotation
		JOINT L_Hip
		{
			OFFSET 0.062321 -0.080322 -0.016990
			CHANNELS 3 Zrotation Yrotation Xrotation
			JOINT L_Knee
			{
				OFFSET 0.093051 -0.381305 -0.029784
				CHANNELS 3 Zrotation Yrotation Xrotation
				JOINT L_Ankle
				{
					OFFSET -0.010371 -0.431000 -0.033614
					CHANNELS 3 Zrotation Yrotation Xrotation
					End Site #name: L_Foot
					{
						OFFSET 0.069299 -0.038670 0.119418
					}
				}
			}
		}
	}
	JOINT Pelvis_R_Hip
	{
		OFFSET 0.000000 0.000000 0.000000
		CHANNELS 3 Zrotation Yrotation Xrotation
		JOINT R_Hip
		{
			OFFSET -0.055334 -0.094904 -0.002373
			CHANNELS 3 Zrotation Yrotation Xrotation
			JOINT R_Knee
			{
				OFFSET -0.064207 -0.384370 -0.019592
				CHANNELS 3 Zrotation Yrotation Xrotation
				JOINT R_Ankle
				{
					OFFSET 0.025418 -0.419734 -0.065953
					CHANNELS 3 Zrotation Yrotation Xrotation
					End Site #name: R_Foot
					{
						OFFSET -0.057233 -0.039888 0.132134
					}
				}
			}
		}
	}
	JOINT Pelvis_Spine1
	{
		OFFSET 0.000000 0.000000 0.000000
		CHANNELS 3 Zrotation Yrotation Xrotation
		JOINT Spine1
		{
			OFFSET -0.005562 0.124093 -0.043360
			CHANNELS 3 Zrotation Yrotation Xrotation
			JOINT Spine2
			{
				OFFSET 0.012244 0.139499 0.029894
				CHANNELS 3 Zrotation Yrotation Xrotation
				JOINT Spine3
				{
					OFFSET -0.002556 0.056561 0.009225
					CHANNELS 3 Zrotation Yrotation Xrotation
					JOINT Spine3_Neck
					{
						OFFSET 0.000000 0.000000 0.000000
						CHANNELS 3 Zrotation Yrotation Xrotation
						JOINT Neck
						{
							OFFSET -0.005205 0.217920 -0.024551
							CHANNELS 3 Zrotation Yrotation Xrotation
							End Site #name: Head
							{
								OFFSET 0.002365 0.091850 0.046637
							}
						}
					}
					JOINT Spine3_L_Collar
					{
						OFFSET 0.000000 0.000000 0.000000
						CHANNELS 3 Zrotation Yrotation Xrotation
						JOINT L_Collar
						{
							OFFSET 0.072225 0.116603 -0.009480
							CHANNELS 3 Zrotation Yrotation Xrotation
							JOINT L_Shoulder
							{
								OFFSET 0.115937 -0.058643 -0.021018
								CHANNELS 3 Zrotation Yrotation Xrotation
								JOINT L_Elbow
								{
									OFFSET 0.021994 -0.254722 -0.024492
									CHANNELS 3 Zrotation Yrotation Xrotation
									End Site #name: L_Wrist
									{
										OFFSET 0.048810 -0.240214 0.103329
									}
								}
							}
						}
					}
					JOINT Spine3_R_Collar
					{
						OFFSET 0.000000 0.000000 0.000000
						CHANNELS 3 Zrotation Yrotation Xrotation
						JOINT R_Collar
						{
							OFFSET -0.073372 0.120704 -0.024611
							CHANNELS 3 Zrotation Yrotation Xrotation
							JOINT R_Shoulder
							{
								OFFSET -0.108089 -0.054969 -0.020504
								CHANNELS 3 Zrotation Yrotation Xrotation
								JOINT R_Elbow
								{
									OFFSET -0.033684 -0.260739 0.009889
									CHANNELS 3 Zrotation Yrotation Xrotation
									End Site #name: R_Wrist
									{
										OFFSET -0.067980 -0.232763 0.118463
									}
								}
							}
						}
					}
				}
			}
		}
	}
}
MOTION
Frames: 5
Frame Time: 0.041667
0.000000 0.942859 0.000000 -3.484766 -3.970209 1.763886 0.000000 0.000000 0.000000 -5.933012 0.905833 1.408523 4.583124 -0.330441 -0.676974 4.858674 11.112753 -2.326619 0.000000 0.000000 0.000000 -0.616010 0.436359 -2.493053 1.176435 0.080519 4.844652 -3.705029 -12.995241 1.393310 0.000000 0.000000 0.000000 5.359159 0.757669 -14.352382 -7.185733 5.293082 31.969998 1.082138 0.922331 -23.599931 0.000000 0.000000 0.000000 0.057158 -0.556575 25.342087 0.000000 0.000000 0.000000 27.907387 -9.960204 -3.119006 -16.395506 2.240196 5.136755 11.637935 4.330245 -6.117035 0.000000 0.000000 0.000000 -28.385298 14.585599 -6.172583 18.095213 -1.483861 9.458023 -13.647668 -5.306596 -9.102781 
0.010046 0.942182 0.000244 -3.723312 -3.769288 1.421008 0.000000 0.000000 0.000000 -6.200888 1.045692 1.790327 4.368852 -0.312100 -0.699409 5.035097 10.754089 -2.946800 0.000000 0.000000 0.000000 -1.378958 0.677558 -3.874515 2.016223 0.076635 8.159385 -3.867008 -13.585006 1.530022 0.000000 0.000000 0.000000 5.139523 0.653775 -13.407305 -7.261601 5.447829 32.881532 0.952921 0.982401 -24.359698 0.000000 0.000000 0.000000 0.353401 -0.798311 24.292244 0.000000 0.000000 0.000000 25.616005 -9.768728 -3.156029 -19.415630 2.664395 5.557965 10.960184 3.951220 -6.815165 0.000000 0.000000 0.000000 -26.479983 14.249817 -6.069838 21.896347 -1.777020 10.323830 -13.017793 -4.511071 -11.815144 
0.020855 0.941528 0.000372 -4.050856 -3.451066 0.838466 0.000000 0.000000 0.000000 -6.403002 1.279369 2.501414 4.182672 -0.283210 -0.918861 5.145472 10.219792 -3.527037 0.000000 0.000000 0.000000 -2.145176 0.979251 -5.792963 3.064723 0.031612 12.909455 -4.074660 -14.414818 1.796939 0.000000 0.000000 0.000000 5.079860 0.484506 -12.044603 -7.215297 5.554360 33.964214 0.701492 0.908343 -25.105762 0.000000 0.000000 0.000000 0.579344 -0.961642 22.822850 0.000000 0.000000 0.000000 23.113348 -10.126528 -3.668387 -21.439648 3.015928 6.056390 11.128331 4.015505 -7.083753 0.000000 0.000000 0.000000 -24.303644 13.912870 -5.991719 25.811086 -2.031729 10.930251 -15.011875 -5.609977 -12.872852 
0.031540 0.940952 0.000755 -4.418021 -3.161128 0.141929 0.000000 0.000000 0.000000 -6.597829 1.622443 3.564045 4.116030 -0.238459 -1.551334 5.189183 9.689114 -3.951166 0.000000 0.000000 0.000000 -2.726269 1.387710 -8.615148 4.198695 -0.071068 19.279438 -4.373068 -15.748490 2.385734 0.000000 0.000000 0.000000 4.919693 0.307819 -10.511842 -6.896511 5.552621 35.284544 0.518393 0.739088 -25.926247 0.000000 0.000000 0.000000 0.676264 -0.993450 21.042936 0.000000 0.000000 0.000000 20.570910 -11.098121 -4.642598 -22.679803 3.280002 6.529949 11.864259 4.393060 -6.931801 0.000000 0.000000 0.000000 -21.887115 13.700081 -6.016193 29.181735 -2.191193 11.243521 -18.471096 -7.892695 -11.836314 
0.041387 0.940665 0.002521 -4.819795 -2.976810 -0.500506 0.000000 0.000000 0.000000 -6.822931 2.047150 4.860654 4.285529 -0.185405 -2.564308 5.125267 9.243056 -4.094917 0.000000 0.000000 0.000000 -2.824000 1.865366 -11.936275 5.424506 -0.332600 25.760962 -4.702778 -17.004810 2.849089 0.000000 0.000000 0.000000 4.694680 0.150840 -9.031976 -6.370216 5.410067 36.387634 0.476834 0.493741 -26.707044 0.000000 0.000000 0.000000 0.675539 -0.938528 19.473456 0.000000 0.000000 0.000000 18.757464 -12.458357 -5.805652 -23.695485 3.459614 6.778421 12.467740 4.739972 -6.327796 0.000000 0.000000 0.000000 -20.193521 13.723561 -6.145728 31.289192 -2.437468 11.795795 -20.170453 -9.098278 -9.811989 
